# xmcd
#
# Track frame offsets:
#	150
#	2665
#	71957
#	98613
#	120401
#	150588
#	171762
#	188511
#	205113
#	251334
#
# Disc length: 3641 seconds
#
# Revision: 1
# Processed by: cddbd v1.5.2PL0 Copyright (c) Steve Scherf et al.
# Submitted via: audiograbber 1.83.01
#
DISCID=730e370a
DTITLE=Grateful Dead - 73-09-08 Nassau Veterans Memorial Coliseum, Uniondale NY
DYEAR=1900
DGENRE=
TTITLE0=Beer Barrel Polka tuning
TTITLE1=Eyes Of The World
TTITLE2=China Doll
TTITLE3=Greatest Story Ever Told
TTITLE4=Ramble On Rose
TTITLE5=Big River
TTITLE6=Let Me Sing Your Blues Away
TTITLE7=China Cat Sunflower
TTITLE8=I Know You Rider
TTITLE9=El Paso
EXTD=
EXTT0=
EXTT1=
EXTT2=
EXTT3=
EXTT4=
EXTT5=
EXTT6=
EXTT7=
EXTT8=
EXTT9=
PLAYORDER=
